<?xml version="1.0" encoding="UTF-8"?>
<!-- Created with Inkscape (http://www.inkscape.org/) -->
<svg width="83.112mm" height="107.63mm" version="1.1" viewBox="0 0 83.112 107.63" xmlns="http://www.w3.org/2000/svg">
 <g transform="translate(0 -.031137)">
  <path transform="matrix(.26458 0 0 .26458 0 .031137)" d="m157.19 0c-57.859 0-104.91 46.127-106.48 103.61h-0.07422l-0.03516 73.32h-35.486c-8.3754 0-15.117 6.7438-15.117 15.119v199.62c0 8.3754 6.7418 15.117 15.117 15.117h283.89c8.3754 0 15.119-6.7418 15.119-15.117v-199.62c0-8.3754-6.7437-15.119-15.119-15.119h-35.484l0.21485-69.879c7.5e-4 -0.16558 0.0117-0.3284 0.0117-0.49414 0-0.12972-9e-3 -0.25713-0.01-0.38672l8e-3 -2.5606h-0.0723c-1.5656-57.481-48.619-103.61-106.48-103.61zm0 49.209c30.675-7e-6 55.652 24.107 57.195 54.398h-0.0332l-0.0137 26.617c-0.16876 16.791-0.375 46.865-0.375 46.865s-40.938 0.0352-56.773 0.0352c-15.795 0-57.449 0.041-57.449 0.041l0.18164-72.105c0.7999-30.973 26.102-55.852 57.268-55.852zm-0.98828 175.19c18.65-9.8e-4 33.769 15.118 33.77 33.768-5e-5 9.325-3.7799 17.767-9.891 23.878-3.0556 3.0554-6.6939 5.5279-10.734 7.2366-2.02 0.85432 8.9043 49.103 8.9043 49.103s-19.718-0.029-22.049-0.0291c-2.3312-1e-5 -23.026 0.0334-23.026 0.0334s11.902-48.254 9.882-49.108c-4.0399-1.7087-7.678-4.1813-10.733-7.2367-6.1107-6.1107-9.8903-14.553-9.8904-23.877 1e-4 -18.649 15.118-33.767 33.768-33.768z" fill="#fff" stroke-linecap="round" stroke-width="12"/>
 </g>
</svg>
