<?xml version="1.0" encoding="UTF-8" standalone="no"?>
<!-- Created with Inkscape (http://www.inkscape.org/) -->

<svg
   width="32"
   height="32"
   viewBox="0 0 8.4666659 8.4666659"
   version="1.1"
   id="svg5"
   inkscape:version="1.1.2 (0a00cf5339, 2022-02-04)"
   sodipodi:docname="logo2.svg"
   xmlns:inkscape="http://www.inkscape.org/namespaces/inkscape"
   xmlns:sodipodi="http://sodipodi.sourceforge.net/DTD/sodipodi-0.dtd"
   xmlns="http://www.w3.org/2000/svg"
   xmlns:svg="http://www.w3.org/2000/svg">
  <sodipodi:namedview
     id="namedview7"
     pagecolor="#505050"
     bordercolor="#eeeeee"
     borderopacity="1"
     inkscape:pageshadow="0"
     inkscape:pageopacity="0"
     inkscape:pagecheckerboard="true"
     inkscape:document-units="px"
     showgrid="false"
     units="px"
     inkscape:zoom="22.627417"
     inkscape:cx="10.69499"
     inkscape:cy="17.081048"
     inkscape:window-width="1920"
     inkscape:window-height="1048"
     inkscape:window-x="1920"
     inkscape:window-y="120"
     inkscape:window-maximized="1"
     inkscape:current-layer="layer1" />
  <defs
     id="defs2" />
  <g
     inkscape:label="Layer 1"
     inkscape:groupmode="layer"
     id="layer1">
    <path
       style="fill:#ffffff;stroke-width:0.0330729;fill-opacity:1"
       d="M 0.33100322,7.7812562 C 0.33115536,7.7671446 0.40556803,7.4673618 0.4963678,7.1150724 0.69195609,6.356219 0.68908969,6.4125121 0.54374528,6.1846351 -0.07272621,5.2181046 0.50227667,3.8949277 1.657056,3.6227224 2.0130675,3.5388032 2.0857899,3.5493819 2.0464161,3.6793618 2.028508,3.7384796 2.0053293,4.0249737 1.9949078,4.3160154 1.9816405,4.6865365 1.9627264,4.8604181 1.9318193,4.8960019 1.605587,5.2715994 1.8408718,5.8724595 2.3300662,5.9130274 2.8946646,5.9598484 3.2132115,5.3778283 2.8809676,4.9064701 2.7800313,4.7632707 2.7781258,4.7533799 2.7781762,4.3729259 2.7782753,3.6258147 2.7865661,3.6214842 4.2167966,3.6214842 h 1.0583333 l 0.25862,0.1234876 C 6.736794,4.3194107 6.899231,5.9407686 5.8301655,6.7036377 5.5614031,6.8954229 5.2537519,7.0014729 4.8335258,7.0471886 4.3884299,7.09561 2.0117206,7.0700268 1.7332322,7.013817 L 1.5316988,6.9731397 1.2371385,7.1848741 C 0.77599175,7.516353 0.33070233,7.809425 0.33100322,7.7812562 Z M 4.7984464,5.8115868 C 5.0715813,5.6275212 5.1455532,5.2051857 4.9496448,4.9483361 4.5799025,4.4635791 3.7750275,4.821268 3.8861515,5.420956 3.9598393,5.8186148 4.4662514,6.0354527 4.7984464,5.8115868 Z M 2.2985676,5.6239159 C 2.097934,5.5409283 2.0029744,5.2702027 2.1265884,5.1336109 c 0.048547,-0.053644 0.056224,-0.1436671 0.056224,-0.6593056 0,-0.7379331 0.033517,-0.8715884 0.2810077,-1.1205864 C 2.7730483,3.0426082 2.8329697,3.0306479 4.1837237,3.0104272 5.0214884,2.997886 5.3612329,2.9816778 5.4135156,2.9517576 5.5766464,2.8584016 5.7598532,2.9347664 5.841488,3.1301465 5.9418184,3.3702706 5.6780189,3.6037581 5.4318224,3.4927389 5.3179944,3.4414094 5.1884223,3.4366102 4.1655951,3.4458389 2.5773112,3.4601694 2.6147593,3.4350829 2.6134866,4.4855987 2.6129035,4.9668953 2.6221246,5.0929015 2.6602438,5.1245374 2.8869371,5.3126763 2.5778546,5.7394366 2.2985676,5.6239159 Z M 6.9433754,5.1668919 C 6.7759123,5.0498971 6.7611244,5.0281748 6.7061992,4.8184932 6.6414653,4.5713654 6.5242939,4.3208321 6.3771598,4.1149476 L 6.2807387,3.980026 6.3968382,3.8075028 C 6.7330769,3.3078541 6.5604072,2.5997247 6.037108,2.3322279 5.5752957,2.0961613 4.8684359,2.2965362 4.6962061,2.7123361 l -0.04095,0.098862 -0.6326412,-0.00386 C 3.3926963,2.8034943 3.3909574,2.8032823 3.618499,2.758073 3.8785689,2.706401 3.9547755,2.6521113 4.0006979,2.485794 4.0449584,2.3254947 4.0212934,2.2542552 3.7983251,1.876585 3.5661654,1.4833466 3.568806,1.5311389 3.7688954,1.3439788 3.97621,1.1500601 3.9672159,1.1490665 4.3460453,1.4077375 4.9306176,1.8068927 5.084457,1.746117 5.2616706,1.0460112 5.3708697,0.61460456 5.3732612,0.61180133 5.6291351,0.61527773 5.8934214,0.61886842 5.9254178,0.6601755 6.0018004,1.0963853 6.0733811,1.5051714 6.1028567,1.5777173 6.2225046,1.6395896 6.3975069,1.7300868 6.5288315,1.7001952 6.8872582,1.4882812 7.2900513,1.2501361 7.2581921,1.2524086 7.4509173,1.448076 7.6478529,1.6480182 7.6485531,1.6412787 7.3908271,2.0266804 7.1460492,2.3927205 7.1167436,2.4841046 7.1888197,2.656607 7.2470082,2.7958713 7.2752244,2.8095865 7.7492399,2.9290149 8.1653455,3.0338529 8.1858008,3.0520435 8.1798261,3.3119306 8.1738313,3.5727079 8.1578647,3.5852217 7.7225256,3.6703428 7.23726,3.765226 7.2475066,3.7612907 7.1746642,3.8807523 7.0651135,4.060415 7.0899906,4.1853496 7.3091142,4.5559703 7.5484212,4.9607285 7.5476354,4.947465 7.3436039,5.1383126 7.1464325,5.3227433 7.1645998,5.3214462 6.9433754,5.1668919 Z"
       id="path2570" />
  </g>
</svg>
