<svg version="1.0" xmlns="http://www.w3.org/2000/svg" width="501" height="586"><path fill="#FEFEFE" d="m477.854 410.893 6.195 21.589 5.009 21.25 2.636 20.574-.923 19.56-5.67 18.206-11.6 16.515-18.72 14.486-25.442 12.57-37.505 9.019-43.04 6.764-47.787 4.058-50.16 1.353-50.16-1.353-47.786-4.058-43.041-6.764-37.505-9.019-25.442-12.57-18.72-14.486-11.6-16.515-5.67-18.207-.923-19.56 2.636-20.573 5.009-21.25 6.195-21.589 5.445-18.03 6.082-17.746 7.355-17.182 9.264-16.335 11.81-15.205 14.992-13.792 18.81-12.098 22.419-10.498 28.889-7.531 30.246-5.142-10.043-4.964-22.403-16.146-16.145-22.403-12.11-25.227-7.265-27.65-2.422-28.86 2.422-28.861 7.265-27.65 12.11-25.228 16.145-22.402 22.403-16.146 25.228-12.11 27.65-7.265L250.846 10l28.86 2.422 27.65 7.265 25.228 12.11 22.403 16.146 16.145 22.402 12.11 25.228 7.265 27.65 2.422 28.86-2.422 28.86-7.265 27.65-12.11 25.228-16.145 22.403-22.403 16.146-10.347 4.737 30.55 5.369 28.89 7.531 22.417 10.498 18.811 12.098 14.993 13.792 11.81 15.205 9.263 16.335 7.355 17.182 6.082 17.747z"/></svg>