<?xml version="1.0" encoding="UTF-8"?>
<!-- Generator: Blender, SVG Export for Grease Pencil - v1.0 -->
<!DOCTYPE svg PUBLIC "-//W3C//DTD SVG 1.1//EN" "http://www.w3.org/Graphics/SVG/1.1/DTD/svg11.dtd">
<svg version="1.0" x="0px" y="0px" xmlns="http://www.w3.org/2000/svg" width="501px" height="586px" viewBox="0 0 501 586">
	<g id="blender_frame_75">
		<g id="blender_object_GPencil">
			<!--Layer: GP_Layer-->
			<g id="GP_Layer">
				<polygon fill="#FEFEFE" stroke="none" fill-opacity="1" points="477.853760,410.893066 484.049072,432.481567 489.057983,453.731873 491.693970,474.305786 490.770752,493.865112 485.101929,512.071655 473.500977,528.587158 454.781433,543.073425 429.338928,555.643250 391.834473,564.661926 348.793396,571.426025 301.006653,575.484375 250.846985,576.837158 200.687439,575.484375 152.900635,571.425964 109.859558,564.661926 72.355103,555.643250 46.912598,543.073425 28.193054,528.587158 16.592102,512.071655 10.923218,493.865112 10.000000,474.305847 12.636108,453.731934 17.644958,432.481567 23.840332,410.893066 29.285461,392.863770 35.367065,375.116943 42.721619,357.934937 51.985596,341.600311 63.795532,326.395447 78.787842,312.602814 97.598938,300.504791 120.016785,290.007355 148.905518,282.475525 179.152466,277.333923 169.108765,272.369568 146.706482,256.223816 130.560669,233.821472 118.451294,208.593628 111.185608,180.943909 108.763794,152.083191 111.185608,123.222534 118.451294,95.572876 130.560669,70.344971 146.706482,47.942688 169.108765,31.796814 194.336609,19.687500 221.986328,12.421814 250.846985,10.000000 279.707642,12.421814 307.357422,19.687500 332.585266,31.796814 354.987549,47.942688 371.133423,70.344971 383.242798,95.572876 390.508423,123.222534 392.930237,152.083191 390.508423,180.943909 383.242798,208.593628 371.133423,233.821472 354.987549,256.223816 332.585266,272.369568 322.238098,277.107056 352.788513,282.475525 381.677246,290.007355 404.095093,300.504791 422.906189,312.602814 437.898560,326.395416 449.708374,341.600311 458.972412,357.934937 466.326965,375.116943 472.408569,392.863770" />
			</g>
		</g>
	</g>
</svg>
